<svg id="Слой_1" data-name="Слой 1" xmlns="http://www.w3.org/2000/svg" viewBox="0 0 150 190"><defs><style>.cls-1{fill-rule:evenodd;}</style></defs><title>Монтажная область 17</title><path class="cls-1" d="M127.13,134.38l-21.9,14.16-34.62-9.17-13,8.81L22.87,139l.47-33.3L45.6,91.54l5.24,1.4.57-23.43,27.76-9.46,26.35,11.79-.14,23.3,20.78,5.55Zm-26,5.28-.15-21.29L81.67,113.8l-3.89,1.42-.14,18.36Zm-71.24-6.44,25.56,7L55.26,119,30,112.53Zm20.72-29.33.11-4.49-3.5-.81-13.93,8.13,23.21,6.47,5.95-3.52ZM57.11,100l18,8.4V87.9l-18-8.66ZM78.38,66.23l-19,6.62,18.55,8.62,19.35-7.35Zm27,35.81,0,3.18-14.4,5.23,13.77,3.35,14.54-8.12Z"/></svg>